<svg width="19" height="19" viewBox="0 0 19 19" fill="none" xmlns="http://www.w3.org/2000/svg">
<path d="M0.84964 3.31483C0.84964 2.73762 1.05235 2.26143 1.45775 1.88626C1.86315 1.51107 2.39019 1.32349 3.03883 1.32349C3.6759 1.32349 4.19133 1.50818 4.58516 1.8776C4.99056 2.25855 5.19327 2.75493 5.19327 3.36678C5.19327 3.92089 4.99636 4.38264 4.60254 4.75206C4.19714 5.13301 3.66431 5.32348 3.00408 5.32348H2.98671C2.34963 5.32348 1.8342 5.13301 1.44037 4.75206C1.04655 4.3711 0.84964 3.89202 0.84964 3.31483ZM1.07551 18.4663V6.89924H4.93265V18.4663H1.07551ZM7.06972 18.4663H10.9269V12.0075C10.9269 11.6034 10.9732 11.2917 11.0659 11.0724C11.228 10.6799 11.4742 10.348 11.8043 10.0767C12.1344 9.80544 12.5485 9.6698 13.0466 9.6698C14.3439 9.6698 14.9925 10.5414 14.9925 12.2845V18.4663H18.8496V11.8343C18.8496 10.1258 18.4442 8.82998 17.6334 7.94686C16.8226 7.06374 15.7512 6.62219 14.4191 6.62219C12.9249 6.62219 11.7608 7.26288 10.9269 8.54426V8.5789H10.9095L10.9269 8.54426V6.89924H7.06972C7.09288 7.26864 7.10447 8.41727 7.10447 10.3451C7.10447 12.273 7.09288 14.98 7.06972 18.4663Z" fill="#8170F2"/>
</svg>
