<svg width="19" height="15" viewBox="0 0 19 15" fill="none" xmlns="http://www.w3.org/2000/svg">
<path d="M12.8766 0.0962593V0.0930176H13.7206L14.029 0.15461C14.2346 0.194596 14.4213 0.246997 14.589 0.311831C14.7567 0.376665 14.919 0.452309 15.0759 0.538749C15.2328 0.625188 15.3751 0.713265 15.5028 0.802946C15.6294 0.891557 15.743 0.985566 15.8436 1.08497C15.9432 1.18546 16.0985 1.2114 16.3095 1.16277C16.5205 1.11415 16.7477 1.04661 16.9911 0.960167C17.2346 0.873728 17.4754 0.776478 17.7134 0.668416C17.9515 0.560355 18.0965 0.491744 18.1484 0.462569C18.1993 0.432324 18.2263 0.416116 18.2296 0.413944L18.2328 0.409082L18.249 0.400977L18.2653 0.392873L18.2815 0.384769L18.2977 0.376665L18.301 0.371802L18.3058 0.368561L18.3107 0.365319L18.314 0.360456L18.3302 0.355594L18.3464 0.352352L18.3432 0.376665L18.3383 0.400977L18.3302 0.42529L18.3221 0.449603L18.314 0.465811L18.3058 0.482019L18.2977 0.506332C18.2923 0.52254 18.2869 0.544146 18.2815 0.571166C18.2761 0.598185 18.2247 0.70623 18.1273 0.895334C18.0299 1.08444 17.9082 1.27623 17.7621 1.47073C17.616 1.66523 17.4851 1.81218 17.3693 1.9116C17.2525 2.01209 17.1751 2.08232 17.1372 2.12231C17.0994 2.16337 17.0534 2.20118 16.9993 2.23577L16.9181 2.28926L16.9019 2.29736L16.8856 2.30547L16.8824 2.31033L16.8775 2.31357L16.8727 2.31681L16.8694 2.32167L16.8532 2.32978L16.837 2.33788L16.8337 2.34274L16.8288 2.34599L16.824 2.34923L16.8207 2.35409L16.8175 2.35895L16.8126 2.36219L16.8077 2.36544L16.8045 2.3703H16.8856L17.3401 2.27305C17.6431 2.20821 17.9325 2.12988 18.2085 2.03803L18.6467 1.89215L18.6954 1.87594L18.7197 1.86784L18.736 1.85973L18.7522 1.85163L18.7684 1.84353L18.7847 1.83542L18.8171 1.83056L18.8496 1.82732V1.85973L18.8415 1.86298L18.8333 1.86784L18.8301 1.8727L18.8252 1.87594L18.8204 1.87918L18.8171 1.88405L18.8139 1.88891L18.809 1.89215L18.8041 1.89539L18.8009 1.90026L18.7977 1.90512L18.7928 1.90836L18.7847 1.92457L18.7765 1.94078L18.7717 1.94402C18.7695 1.94726 18.7008 2.0391 18.5655 2.21956C18.4303 2.40109 18.3572 2.49293 18.3464 2.4951C18.3356 2.49835 18.3205 2.51455 18.301 2.54373C18.2826 2.57397 18.1679 2.69447 17.9569 2.90518C17.7459 3.11589 17.5392 3.30335 17.3369 3.46761C17.1335 3.63293 17.0307 3.83607 17.0285 4.07704C17.0252 4.31693 17.0128 4.58816 16.9911 4.89071C16.9695 5.19327 16.9289 5.52013 16.8694 5.87132C16.8099 6.2225 16.7179 6.61961 16.5935 7.06263C16.4691 7.50566 16.3176 7.93789 16.139 8.35931C15.9605 8.78072 15.7738 9.15892 15.5791 9.49389C15.3843 9.82887 15.2058 10.1125 15.0434 10.3448C14.8811 10.5772 14.7161 10.796 14.5484 11.0013C14.3807 11.2066 14.1686 11.4378 13.9122 11.695C13.6546 11.9511 13.514 12.0916 13.4902 12.1164C13.4653 12.1402 13.3593 12.2288 13.172 12.3822C12.9859 12.5367 12.7857 12.6913 12.5715 12.8458C12.3583 12.9992 12.1625 13.1273 11.9839 13.2299C11.8054 13.3326 11.5901 13.4498 11.3379 13.5817C11.0869 13.7146 10.8153 13.8377 10.5232 13.9512C10.231 14.0647 9.92262 14.17 9.598 14.2673C9.27338 14.3645 8.95959 14.4402 8.65661 14.4942C8.35365 14.5482 8.01009 14.5941 7.62595 14.632L7.04976 14.6887V14.6968H5.99475V14.6887L5.85679 14.6806C5.76483 14.6752 5.68908 14.6698 5.62956 14.6644C5.57006 14.659 5.34552 14.6293 4.95598 14.5752C4.56644 14.5212 4.26077 14.4672 4.03894 14.4131C3.81713 14.3591 3.48709 14.2565 3.04886 14.1052C2.61062 13.9539 2.23569 13.801 1.92406 13.6465C1.61352 13.493 1.41875 13.3958 1.33975 13.3547C1.26184 13.3148 1.1742 13.2651 1.07681 13.2056L0.930733 13.1165L0.927503 13.1116L0.922618 13.1084L0.917748 13.1051L0.914502 13.1003L0.898271 13.0922L0.882041 13.0841L0.878811 13.0792L0.873925 13.076L0.869056 13.0727L0.86581 13.0678L0.86258 13.063L0.857694 13.0597H0.849579V13.0273L0.86581 13.0306L0.882041 13.0354L0.955079 13.0435C1.00377 13.0489 1.13633 13.057 1.35273 13.0678C1.56916 13.0787 1.79908 13.0787 2.04255 13.0678C2.28601 13.057 2.53489 13.0327 2.78916 12.9949C3.04345 12.9571 3.34372 12.8923 3.68998 12.8004C4.03624 12.7086 4.35437 12.5994 4.64437 12.473C4.93327 12.3455 5.13885 12.2504 5.26114 12.1877C5.38232 12.1261 5.56735 12.0116 5.81622 11.8441L6.18952 11.5929L6.19277 11.588L6.19764 11.5848L6.20253 11.5815L6.20576 11.5767L6.209 11.5718L6.21387 11.5686L6.21876 11.5653L6.22199 11.5605L6.23822 11.5556L6.25445 11.5524L6.25769 11.5362L6.26256 11.5199L6.26745 11.5167L6.27068 11.5118L6.14083 11.5037C6.05427 11.4983 5.97041 11.4929 5.88925 11.4875C5.8081 11.4821 5.68096 11.4578 5.50783 11.4146C5.33471 11.3714 5.14806 11.3065 4.94787 11.2201C4.74769 11.1337 4.55292 11.031 4.36356 10.9121C4.17421 10.7933 4.03732 10.6944 3.95292 10.6155C3.8696 10.5377 3.76139 10.4275 3.6283 10.2849C3.49629 10.1412 3.38159 9.99365 3.2842 9.84237C3.18682 9.6911 3.09377 9.51657 3.00505 9.31884L2.87032 9.02385L2.8622 8.99954L2.85409 8.97523L2.84922 8.95902L2.84597 8.94281L2.87032 8.94605L2.89466 8.95091L3.0732 8.97523C3.19224 8.99143 3.3789 8.99683 3.63317 8.99143C3.88746 8.98604 4.06328 8.97523 4.16067 8.95902C4.25805 8.94281 4.31757 8.932 4.33921 8.9266L4.37167 8.9185L4.41225 8.91039L4.45283 8.90229L4.45607 8.89743L4.46094 8.89418L4.46583 8.89094L4.46906 8.88608L4.43659 8.87797L4.40413 8.86987L4.37167 8.86177L4.33921 8.85366L4.30675 8.84556C4.28511 8.84016 4.24725 8.82935 4.19313 8.81314C4.13903 8.79693 3.99296 8.7375 3.7549 8.63485C3.51686 8.5322 3.32749 8.43224 3.18682 8.33499C3.0458 8.23746 2.91133 8.1308 2.78429 8.01569C2.65769 7.89899 2.51866 7.74878 2.36716 7.56509C2.21568 7.3814 2.08043 7.16799 1.96139 6.92486C1.84237 6.68174 1.7531 6.44942 1.69358 6.2279C1.6343 6.00768 1.59519 5.78254 1.57674 5.55525L1.5475 5.21487L1.56374 5.21812L1.57997 5.22298L1.5962 5.23108L1.61243 5.23919L1.62866 5.24729L1.64489 5.2554L1.89647 5.36885C2.0642 5.4445 2.27249 5.50933 2.52136 5.56336C2.77024 5.61738 2.91901 5.6471 2.9677 5.6525L3.04074 5.66061H3.18682L3.18359 5.65574L3.1787 5.6525L3.17383 5.64926L3.17059 5.6444L3.16736 5.63953L3.16247 5.63629L3.1576 5.63305L3.15436 5.62819L3.13813 5.62008L3.1219 5.61198L3.11867 5.60712L3.11378 5.60388L3.10891 5.60063L3.10567 5.59577L3.08943 5.58767L3.0732 5.57956L3.06997 5.5747C3.06673 5.57253 3.02019 5.53796 2.93037 5.47097C2.84164 5.40289 2.74859 5.31483 2.6512 5.20677C2.55382 5.09871 2.45643 4.98525 2.35905 4.86639C2.26148 4.74727 2.17458 4.61981 2.09935 4.4855C2.02362 4.35043 1.94354 4.17861 1.85914 3.97007C1.77582 3.7626 1.71252 3.55351 1.66924 3.3428C1.62596 3.13209 1.60162 2.92409 1.5962 2.71878C1.59079 2.51347 1.5962 2.33788 1.61243 2.19201C1.62866 2.04613 1.66112 1.88134 1.70981 1.69765C1.75851 1.51396 1.82885 1.31946 1.92081 1.11415L2.05878 0.806188L2.06689 0.781875L2.07501 0.757562L2.07989 0.754321L2.08312 0.749458L2.08637 0.744596L2.09124 0.741354L2.09612 0.744596L2.09935 0.749458L2.1026 0.754321L2.10747 0.757562L2.11235 0.760804L2.11558 0.765667L2.11883 0.770529L2.1237 0.773771L2.13182 0.789979L2.13993 0.806188L2.14482 0.809429L2.14805 0.814292L2.36716 1.05742C2.51324 1.2195 2.68637 1.4005 2.88655 1.6004C3.08674 1.8003 3.19765 1.90403 3.21928 1.9116C3.24093 1.92024 3.26797 1.94509 3.30044 1.98616C3.3329 2.02615 3.44111 2.12178 3.62505 2.27305C3.80901 2.42432 4.04976 2.59992 4.34732 2.79982C4.6449 2.99972 4.97492 3.19693 5.33741 3.39143C5.69991 3.58593 6.08945 3.76152 6.50603 3.9182C6.92262 4.07489 7.21478 4.17754 7.38249 4.22616C7.55022 4.27479 7.83695 4.33691 8.24273 4.41256C8.6485 4.4882 8.95419 4.53683 9.15977 4.55843C9.36536 4.58004 9.50604 4.59247 9.58177 4.59571L9.69539 4.59896L9.69216 4.57464L9.68727 4.55033L9.65481 4.34772C9.63317 4.21266 9.62235 4.02356 9.62235 3.78043C9.62235 3.5373 9.64129 3.31309 9.67916 3.10778C9.71704 2.90247 9.77385 2.69447 9.84958 2.48376C9.92533 2.27305 9.99945 2.10393 10.0719 1.97643C10.1455 1.85001 10.2418 1.70575 10.3609 1.54367C10.4799 1.38159 10.6341 1.2141 10.8234 1.04121C11.0128 0.868314 11.2292 0.714334 11.4727 0.57927C11.7161 0.444205 11.9407 0.341541 12.1462 0.27131C12.3518 0.201079 12.525 0.155144 12.6656 0.133539C12.8063 0.111933 12.8766 0.0995009 12.8766 0.0962593Z" fill="#8170F2"/>
</svg>
